<mxfile host="app.diagrams.net" modified="2022-11-18T09:08:31.717Z" agent="5.0 (Windows NT 10.0; Win64; x64) AppleWebKit/537.36 (KHTML, like Gecko) Chrome/107.0.0.0 Safari/537.36" etag="fmagKYq_ZN7sn27UeH0n" version="20.5.3" type="github">
  <diagram id="C5RBs43oDa-KdzZeNtuy" name="Page-1">
    <mxGraphModel dx="1808" dy="486" grid="1" gridSize="10" guides="1" tooltips="1" connect="1" arrows="1" fold="1" page="1" pageScale="1" pageWidth="827" pageHeight="1169" math="0" shadow="0">
      <root>
        <mxCell id="WIyWlLk6GJQsqaUBKTNV-0" />
        <mxCell id="WIyWlLk6GJQsqaUBKTNV-1" parent="WIyWlLk6GJQsqaUBKTNV-0" />
        <mxCell id="WIyWlLk6GJQsqaUBKTNV-5" value="No" style="edgeStyle=orthogonalEdgeStyle;rounded=0;html=1;jettySize=auto;orthogonalLoop=1;fontSize=11;endArrow=block;endFill=0;endSize=8;strokeWidth=1;shadow=0;labelBackgroundColor=none;entryX=0;entryY=0.5;entryDx=0;entryDy=0;" parent="WIyWlLk6GJQsqaUBKTNV-1" source="WIyWlLk6GJQsqaUBKTNV-6" target="yWLYZ-c4DIYPpMAelOv0-13" edge="1">
          <mxGeometry y="10" relative="1" as="geometry">
            <mxPoint as="offset" />
            <mxPoint x="414" y="212.5" as="targetPoint" />
          </mxGeometry>
        </mxCell>
        <object label="Si" id="yWLYZ-c4DIYPpMAelOv0-4">
          <mxCell style="edgeStyle=orthogonalEdgeStyle;rounded=0;orthogonalLoop=1;jettySize=auto;html=1;" edge="1" parent="WIyWlLk6GJQsqaUBKTNV-1">
            <mxGeometry x="-0.1429" y="10" relative="1" as="geometry">
              <mxPoint x="70" y="250" as="sourcePoint" />
              <mxPoint x="70" y="320" as="targetPoint" />
              <mxPoint as="offset" />
            </mxGeometry>
          </mxCell>
        </object>
        <mxCell id="WIyWlLk6GJQsqaUBKTNV-6" value="¿Parar el servicio?" style="rhombus;whiteSpace=wrap;html=1;shadow=0;fontFamily=Helvetica;fontSize=12;align=center;strokeWidth=1;spacing=6;spacingTop=-4;" parent="WIyWlLk6GJQsqaUBKTNV-1" vertex="1">
          <mxGeometry x="10" y="175" width="120" height="75" as="geometry" />
        </mxCell>
        <mxCell id="yWLYZ-c4DIYPpMAelOv0-6" style="edgeStyle=orthogonalEdgeStyle;rounded=0;orthogonalLoop=1;jettySize=auto;html=1;entryX=0;entryY=0.5;entryDx=0;entryDy=0;" edge="1" parent="WIyWlLk6GJQsqaUBKTNV-1" source="yWLYZ-c4DIYPpMAelOv0-0" target="yWLYZ-c4DIYPpMAelOv0-5">
          <mxGeometry relative="1" as="geometry" />
        </mxCell>
        <mxCell id="yWLYZ-c4DIYPpMAelOv0-0" value="Parar servicios SGA y habilitar Pag. Mto." style="rounded=1;whiteSpace=wrap;html=1;" vertex="1" parent="WIyWlLk6GJQsqaUBKTNV-1">
          <mxGeometry x="10" y="320" width="120" height="70" as="geometry" />
        </mxCell>
        <mxCell id="yWLYZ-c4DIYPpMAelOv0-11" value="Sí" style="edgeStyle=orthogonalEdgeStyle;rounded=0;orthogonalLoop=1;jettySize=auto;html=1;entryX=0;entryY=0.5;entryDx=0;entryDy=0;" edge="1" parent="WIyWlLk6GJQsqaUBKTNV-1" source="yWLYZ-c4DIYPpMAelOv0-5" target="yWLYZ-c4DIYPpMAelOv0-10">
          <mxGeometry x="0.0811" y="15" relative="1" as="geometry">
            <mxPoint as="offset" />
          </mxGeometry>
        </mxCell>
        <mxCell id="yWLYZ-c4DIYPpMAelOv0-5" value="¿Continuar?" style="rhombus;whiteSpace=wrap;html=1;" vertex="1" parent="WIyWlLk6GJQsqaUBKTNV-1">
          <mxGeometry x="220" y="315" width="120" height="80" as="geometry" />
        </mxCell>
        <mxCell id="yWLYZ-c4DIYPpMAelOv0-14" style="edgeStyle=orthogonalEdgeStyle;rounded=0;orthogonalLoop=1;jettySize=auto;html=1;entryX=0.5;entryY=1;entryDx=0;entryDy=0;" edge="1" parent="WIyWlLk6GJQsqaUBKTNV-1" source="yWLYZ-c4DIYPpMAelOv0-10" target="yWLYZ-c4DIYPpMAelOv0-13">
          <mxGeometry relative="1" as="geometry" />
        </mxCell>
        <mxCell id="yWLYZ-c4DIYPpMAelOv0-10" value="Arrancar servicios SGA" style="rounded=1;whiteSpace=wrap;html=1;" vertex="1" parent="WIyWlLk6GJQsqaUBKTNV-1">
          <mxGeometry x="416" y="325" width="120" height="60" as="geometry" />
        </mxCell>
        <mxCell id="yWLYZ-c4DIYPpMAelOv0-17" value="Sí" style="edgeStyle=orthogonalEdgeStyle;rounded=0;orthogonalLoop=1;jettySize=auto;html=1;entryX=0.461;entryY=1.021;entryDx=0;entryDy=0;entryPerimeter=0;" edge="1" parent="WIyWlLk6GJQsqaUBKTNV-1" source="yWLYZ-c4DIYPpMAelOv0-13" target="yWLYZ-c4DIYPpMAelOv0-15">
          <mxGeometry x="0.0095" y="-14" relative="1" as="geometry">
            <mxPoint x="14" y="13" as="offset" />
          </mxGeometry>
        </mxCell>
        <mxCell id="yWLYZ-c4DIYPpMAelOv0-21" value="No" style="edgeStyle=orthogonalEdgeStyle;rounded=0;orthogonalLoop=1;jettySize=auto;html=1;entryX=0;entryY=0.5;entryDx=0;entryDy=0;" edge="1" parent="WIyWlLk6GJQsqaUBKTNV-1" source="yWLYZ-c4DIYPpMAelOv0-13" target="yWLYZ-c4DIYPpMAelOv0-20">
          <mxGeometry x="-0.0069" y="-12" relative="1" as="geometry">
            <mxPoint x="12" y="-12" as="offset" />
          </mxGeometry>
        </mxCell>
        <mxCell id="yWLYZ-c4DIYPpMAelOv0-13" value="¿Hay SgaGen?" style="rhombus;whiteSpace=wrap;html=1;" vertex="1" parent="WIyWlLk6GJQsqaUBKTNV-1">
          <mxGeometry x="418" y="172.5" width="116" height="80" as="geometry" />
        </mxCell>
        <mxCell id="yWLYZ-c4DIYPpMAelOv0-19" style="edgeStyle=orthogonalEdgeStyle;rounded=0;orthogonalLoop=1;jettySize=auto;html=1;entryX=0;entryY=0.5;entryDx=0;entryDy=0;" edge="1" parent="WIyWlLk6GJQsqaUBKTNV-1" source="yWLYZ-c4DIYPpMAelOv0-15" target="yWLYZ-c4DIYPpMAelOv0-18">
          <mxGeometry relative="1" as="geometry" />
        </mxCell>
        <mxCell id="yWLYZ-c4DIYPpMAelOv0-15" value="Desplegar SgaGen" style="rounded=1;whiteSpace=wrap;html=1;" vertex="1" parent="WIyWlLk6GJQsqaUBKTNV-1">
          <mxGeometry x="420" y="50" width="120" height="60" as="geometry" />
        </mxCell>
        <mxCell id="yWLYZ-c4DIYPpMAelOv0-22" style="edgeStyle=orthogonalEdgeStyle;rounded=0;orthogonalLoop=1;jettySize=auto;html=1;entryX=0.417;entryY=-0.05;entryDx=0;entryDy=0;entryPerimeter=0;" edge="1" parent="WIyWlLk6GJQsqaUBKTNV-1" source="yWLYZ-c4DIYPpMAelOv0-18" target="yWLYZ-c4DIYPpMAelOv0-20">
          <mxGeometry relative="1" as="geometry" />
        </mxCell>
        <mxCell id="yWLYZ-c4DIYPpMAelOv0-23" value="Sí" style="edgeLabel;html=1;align=center;verticalAlign=middle;resizable=0;points=[];" vertex="1" connectable="0" parent="yWLYZ-c4DIYPpMAelOv0-22">
          <mxGeometry x="-0.2338" y="-2" relative="1" as="geometry">
            <mxPoint x="12" as="offset" />
          </mxGeometry>
        </mxCell>
        <mxCell id="yWLYZ-c4DIYPpMAelOv0-18" value="¿Continuar despliegue?" style="rhombus;whiteSpace=wrap;html=1;" vertex="1" parent="WIyWlLk6GJQsqaUBKTNV-1">
          <mxGeometry x="610" y="40" width="100" height="80" as="geometry" />
        </mxCell>
        <mxCell id="yWLYZ-c4DIYPpMAelOv0-25" style="edgeStyle=orthogonalEdgeStyle;rounded=0;orthogonalLoop=1;jettySize=auto;html=1;entryX=0;entryY=0.5;entryDx=0;entryDy=0;" edge="1" parent="WIyWlLk6GJQsqaUBKTNV-1" source="yWLYZ-c4DIYPpMAelOv0-20" target="yWLYZ-c4DIYPpMAelOv0-24">
          <mxGeometry relative="1" as="geometry" />
        </mxCell>
        <mxCell id="yWLYZ-c4DIYPpMAelOv0-20" value="Desplegar resto componentes" style="rounded=1;whiteSpace=wrap;html=1;" vertex="1" parent="WIyWlLk6GJQsqaUBKTNV-1">
          <mxGeometry x="610" y="183" width="120" height="60" as="geometry" />
        </mxCell>
        <mxCell id="yWLYZ-c4DIYPpMAelOv0-27" style="edgeStyle=orthogonalEdgeStyle;rounded=0;orthogonalLoop=1;jettySize=auto;html=1;entryX=0;entryY=0.5;entryDx=0;entryDy=0;" edge="1" parent="WIyWlLk6GJQsqaUBKTNV-1" source="yWLYZ-c4DIYPpMAelOv0-24">
          <mxGeometry relative="1" as="geometry">
            <mxPoint x="1019.9999999999995" y="213" as="targetPoint" />
          </mxGeometry>
        </mxCell>
        <mxCell id="yWLYZ-c4DIYPpMAelOv0-24" value="Habilitar Pag.Mto" style="rounded=1;whiteSpace=wrap;html=1;" vertex="1" parent="WIyWlLk6GJQsqaUBKTNV-1">
          <mxGeometry x="820" y="183" width="120" height="60" as="geometry" />
        </mxCell>
        <mxCell id="yWLYZ-c4DIYPpMAelOv0-29" style="edgeStyle=orthogonalEdgeStyle;rounded=0;orthogonalLoop=1;jettySize=auto;html=1;" edge="1" parent="WIyWlLk6GJQsqaUBKTNV-1" source="yWLYZ-c4DIYPpMAelOv0-28" target="WIyWlLk6GJQsqaUBKTNV-6">
          <mxGeometry relative="1" as="geometry" />
        </mxCell>
        <mxCell id="yWLYZ-c4DIYPpMAelOv0-28" value="Comenzar Instalación" style="ellipse;whiteSpace=wrap;html=1;" vertex="1" parent="WIyWlLk6GJQsqaUBKTNV-1">
          <mxGeometry x="-160" y="173" width="110" height="80" as="geometry" />
        </mxCell>
        <mxCell id="yWLYZ-c4DIYPpMAelOv0-30" value="Fin instalación" style="ellipse;whiteSpace=wrap;html=1;" vertex="1" parent="WIyWlLk6GJQsqaUBKTNV-1">
          <mxGeometry x="1020" y="173" width="120" height="80" as="geometry" />
        </mxCell>
      </root>
    </mxGraphModel>
  </diagram>
</mxfile>
